<svg id="Capa_1" 
enable-background="new 0 0 512 512" 
height="5 0" 
viewBox="0 0 512 512" 
width="50" 
xmlns="http://www.w3.org/2000/svg">
<circle cx="255.999" cy="177.1" fill="#9ce6fb" r="177.1"/>
<path d="m433.098 177.098c0 97.816-79.293 177.099-177.098 177.099-3.925 0-7.819-.124-11.672-.381 92.366-6.016 165.416-82.826 165.416-176.717 0-93.88-73.05-170.701-165.416-176.717 3.853-.258 7.747-.382 11.672-.382 97.805 0 177.098 79.293 177.098 177.098z" fill="#68dbf9"/><circle cx="255.999" cy="177.1" fill="#68dbf9" r="90.136"/>
<path d="m346.142 177.102c0 49.778-40.365 90.128-90.143 90.128-5.285 0-10.48-.457-15.521-1.325 42.391-7.372 74.606-44.325 74.606-88.803s-32.216-81.445-74.606-88.818c5.042-.868 10.236-1.325 15.521-1.325 49.778.001 90.143 40.365 90.143 90.143z" fill="#24d1f8"/>
<path d="m161.128 279.697c-1.978 0-3.955-.754-5.464-2.263-55.324-55.324-55.324-145.344 0-200.668 3.017-3.017 7.908-3.019 10.928 0 3.017 3.017 3.017 7.909 0 10.927-49.3 49.299-49.3 129.516 0 178.815 3.017 3.017 3.017 7.909 0 10.927-1.51 1.508-3.487 2.262-5.464 2.262z" fill="#68dbf9"/>
<path d="m350.869 279.697c-1.978 0-3.955-.754-5.464-2.263-3.017-3.017-3.017-7.909 0-10.927 23.882-23.882 37.035-55.634 37.035-89.407s-13.153-65.526-37.035-89.407c-3.017-3.017-3.017-7.909 0-10.927 3.017-3.017 7.908-3.019 10.928 0 26.8 26.8 41.56 62.433 41.56 100.334s-14.761 73.534-41.56 100.334c-1.509 1.509-3.487 2.263-5.464 2.263z" fill="#68dbf9"/>
<path d="m383.742 347.171h65.221v-51.526h-385.928v100.975h320.707z" fill="#fb6672"/>
<path d="m139.074 361.594h-76.039v-31.936h76.039c2.845 0 5.151 2.306 5.151 5.151v21.634c0 2.844-2.306 5.151-5.151 5.151z" fill="#f8f3f1"/>
<path d="m429.07 295.652h19.893v51.519h-19.893z" fill="#fb4a59"/>
<path d="m383.742 430.616v-40.998h-320.707v93.973h385.928v-52.975z" fill="#f8f3f1"/>
<path d="m429.066 430.616h19.894v52.97h-19.894z" fill="#efe2dd"/>
<path d="m447.487 303.629h-382.976c-8.151 0-14.758-6.608-14.758-14.758v-6.877c0-8.151 6.608-14.758 14.758-14.758h382.976c8.151 0 14.758 6.608 14.758 14.758v6.877c0 8.151-6.607 14.758-14.758 14.758z" fill="#dff6fd"/>
<path d="m462.247 281.99v6.888c0 8.149-6.611 14.745-14.76 14.745h-18.603c8.164 0 14.76-6.595 14.76-14.745v-6.888c0-8.149-6.595-14.76-14.76-14.76h18.603c8.15 0 14.76 6.611 14.76 14.76z" fill="#c9f0fd"/>
<path d="m447.487 512h-382.976c-8.151 0-14.758-6.608-14.758-14.758v-6.877c0-8.151 6.608-14.758 14.758-14.758h382.976c8.151 0 14.758 6.608 14.758 14.758v6.877c0 8.15-6.607 14.758-14.758 14.758z" fill="#dff6fd"/>
<path d="m462.247 490.367v6.873c0 8.149-6.611 14.76-14.76 14.76h-18.603c8.164 0 14.76-6.611 14.76-14.76v-6.873c0-8.149-6.595-14.76-14.76-14.76h18.603c8.15.001 14.76 6.611 14.76 14.76z" fill="#c9f0fd"/><circle cx="256" cy="389.618" fill="#fcc16d" r="44.502"/><circle cx="256" cy="389.618" fill="#ba7c65" r="20.999"/>
<path d="m448.963 339.136v100.958h-67.116c-2.843 0-5.151-2.308-5.151-5.151v-90.656c0-2.843 2.308-5.151 5.151-5.151z" fill="#756f6f"/><path d="m429.07 339.136h19.893v100.958h-19.893z" fill="#5b5555"/>
<path d="m115.895 425.98h-21.118c-4.268 0-7.726-3.459-7.726-7.726s3.459-7.726 7.726-7.726h21.119c4.268 0 7.726 3.459 7.726 7.726s-3.459 7.726-7.727 7.726z" fill="#fcc16d"/>
<path d="m156.588 450.704h-61.811c-4.268 0-7.726-3.459-7.726-7.726s3.459-7.726 7.726-7.726h61.811c4.268 0 7.726 3.459 7.726 7.726s-3.459 7.726-7.726 7.726z" fill="#fcc16d"/><g fill="#f8f3f1">
<path d="m448.963 356.278v15.453h-39.229c-4.265 0-7.726-3.462-7.726-7.726 0-4.265 3.462-7.726 7.726-7.726h39.229z"/>
<path d="m448.963 381.888v15.453h-39.229c-4.265 0-7.726-3.451-7.726-7.726 0-4.265 3.462-7.726 7.726-7.726h39.229z"/><path d="m448.963 407.499v15.453h-39.229c-4.265 0-7.726-3.451-7.726-7.726 0-4.265 3.462-7.726 7.726-7.726h39.229z"/></g>
<path d="m429.07 356.278h19.893v15.453h-19.893z" fill="#efe2dd"/>
<path d="m429.07 381.888h19.893v15.453h-19.893z" fill="#efe2dd"/>
<path d="m429.07 407.499h19.893v15.453h-19.893z" fill="#efe2dd"/></svg>